<svg xmlns="http://www.w3.org/2000/svg" width="1242" height="156" viewBox="0 0 1242 156" version="1.1"><path d="M 0 78 L 0 156 319.250 155.985 L 638.500 155.970 626 149.138 C 619.125 145.380, 582.675 125.750, 545 105.514 C 507.325 85.279, 474.250 67.494, 471.500 65.991 C 468.750 64.489, 451.200 55.041, 432.500 44.996 C 413.800 34.951, 387.358 20.718, 373.739 13.366 L 348.978 0 174.489 0 L 0 0 0 78 M 1165.364 23.117 C 1160.864 25.406, 1160.584 31.637, 1164.878 33.935 C 1168.470 35.857, 1173.877 35.213, 1176.545 32.545 C 1179.458 29.633, 1179.611 27.976, 1177.240 25.048 C 1175.194 22.521, 1168.632 21.455, 1165.364 23.117 M 921.635 26.073 C 918.344 28.661, 918.286 31.377, 921.455 34.545 C 923.261 36.352, 924.990 37, 928 37 C 932.364 37, 937 33.652, 937 30.500 C 937 29.625, 935.895 27.805, 934.545 26.455 C 931.381 23.290, 925.397 23.113, 921.635 26.073 M 714.110 31.389 L 707.778 37.778 708.463 43.685 L 709.149 49.592 697.020 57.203 C 690.348 61.389, 685.252 65.025, 685.695 65.284 C 687.478 66.324, 695.943 62.815, 698.867 59.824 L 701.984 56.637 704.242 58.752 C 710.605 64.712, 723.834 64.391, 729.403 58.140 C 731.227 56.093, 731.235 55.848, 729.590 52.199 C 728.646 50.107, 725.664 46.491, 722.963 44.164 L 718.051 39.933 721.526 35.097 C 725.240 29.927, 725.705 28.105, 723.800 26.200 C 721.778 24.178, 720.669 24.772, 714.110 31.389 M 795 28.757 C 795 30.013, 803.936 40.500, 805.006 40.500 C 806.700 40.500, 805.845 38.698, 801.595 33.306 C 797.941 28.672, 795 26.643, 795 28.757 M 1025.308 29.010 C 1024.103 29.495, 1022.347 31.067, 1021.406 32.503 C 1019.773 34.995, 1019.787 35.238, 1021.699 37.799 C 1024.528 41.588, 1029.208 42.748, 1033.468 40.717 C 1042.843 36.246, 1035.062 25.081, 1025.308 29.010 M 628.655 30.829 C 624.840 35.044, 628.160 43, 633.734 43 C 636.850 43, 641 38.742, 641 35.545 C 641 29.905, 632.448 26.637, 628.655 30.829 M 1056 38.132 C 1049.675 42.552, 1042.269 47.311, 1039.541 48.707 L 1034.583 51.245 1031.541 47.738 C 1028.405 44.121, 1023.676 42.437, 1022.139 44.390 C 1021.659 45, 1020.330 47.975, 1019.186 51 C 1018.043 54.025, 1016.197 58.830, 1015.085 61.678 C 1013.167 66.590, 1013.151 66.963, 1014.781 68.937 C 1016.546 71.072, 1019.472 71.691, 1028.750 71.888 C 1033.615 71.992, 1034 72.178, 1034 74.435 C 1034 78.934, 1035.770 82, 1038.368 82 C 1041.409 82, 1042 80.437, 1042 72.393 C 1042 64.993, 1041.764 64.791, 1031.654 63.550 L 1025.809 62.832 1026.494 59.166 C 1027.363 54.514, 1027.346 54.525, 1030.336 56.484 C 1032.767 58.077, 1033.047 58.002, 1039.281 54.064 C 1042.820 51.829, 1046.567 49.985, 1047.608 49.967 C 1049.687 49.930, 1054 46.735, 1054 45.231 C 1054 44.710, 1056.475 42.640, 1059.500 40.631 L 1065 36.980 1065.017 40.740 C 1065.043 46.376, 1067.584 57.282, 1069.887 61.644 C 1072.990 67.522, 1073.534 68.116, 1075.223 67.468 C 1076.577 66.948, 1076.473 66.309, 1074.444 62.678 C 1069.500 53.833, 1067.099 35.822, 1070.489 33.009 C 1072.255 31.544, 1071.569 29.980, 1069.191 30.048 C 1068.261 30.075, 1062.325 33.713, 1056 38.132 M 782 56.525 L 782 82.050 798.250 81.775 L 814.500 81.500 814.797 75.834 C 815.072 70.601, 815.422 69.865, 819.374 66.223 L 823.654 62.278 829.367 63.313 C 834.222 64.193, 835.322 64.106, 836.696 62.733 C 838.183 61.245, 837.979 60.607, 834.115 54.677 C 827.986 45.270, 827.179 44.711, 820.831 45.488 C 817.033 45.952, 814.450 45.696, 811.849 44.598 C 808.683 43.261, 808.040 43.247, 807.007 44.492 C 805.143 46.738, 814.001 52.036, 818.421 51.319 C 821.154 50.876, 822.058 51.256, 823.944 53.644 L 826.200 56.500 822.162 57 C 818.813 57.415, 817.595 58.232, 815.028 61.788 C 813.325 64.147, 811.557 65.844, 811.097 65.560 C 810.638 65.276, 809.974 63.241, 809.622 61.036 C 809.059 57.520, 808.417 56.742, 804.376 54.689 C 799.945 52.436, 799.672 52.034, 797.106 43.973 L 794.440 35.597 788.506 33.298 C 785.243 32.034, 782.444 31, 782.286 31 C 782.129 31, 782 42.486, 782 56.525 M 816.223 32.557 C 812.655 35.056, 813.366 39.577, 817.684 41.850 C 820.880 43.532, 823.393 43.265, 826.365 40.927 C 831.375 36.987, 828.441 31, 821.500 31 C 819.820 31, 817.445 31.701, 816.223 32.557 M 738.388 33.934 C 734.770 35.475, 732 39.932, 732 44.212 C 732 54.831, 746.971 57.921, 751.883 48.316 C 756.078 40.113, 746.883 30.314, 738.388 33.934 M 1158.703 39.683 C 1157.378 41.782, 1154.837 46.086, 1153.054 49.246 C 1149.316 55.875, 1148.899 55.922, 1138.377 50.914 C 1135.010 49.311, 1130.869 48, 1129.175 48 L 1126.096 48 1127.479 52.597 C 1129.465 59.195, 1133.417 64.662, 1137.829 66.913 C 1141.037 68.549, 1142.367 68.705, 1146.058 67.876 C 1148.479 67.332, 1151.896 65.791, 1153.651 64.453 L 1156.842 62.019 1162.171 64.500 C 1171.292 68.746, 1171.683 68.542, 1178.250 56.136 C 1181.412 50.162, 1184 44.537, 1184 43.637 C 1184 41.827, 1182.467 41.436, 1181.500 43 C 1180.093 45.276, 1174.602 44.017, 1171.042 40.602 C 1169.094 38.733, 1166.062 36.903, 1164.305 36.534 C 1161.395 35.925, 1160.895 36.206, 1158.703 39.683 M 612.814 39.828 C 610.237 40.747, 606.075 42.953, 603.564 44.729 C 597.308 49.156, 597.303 52.203, 603.543 57.005 L 608.085 60.500 607.526 66.637 C 607.104 71.280, 607.298 72.900, 608.324 73.294 C 610.667 74.193, 611.808 72.661, 613.603 66.206 C 615.235 60.334, 615.239 59.725, 613.672 56.438 C 611.564 52.017, 611.474 52.409, 615 50.650 C 617.892 49.207, 618.022 49.241, 618.609 51.577 C 619.343 54.504, 619.616 54.522, 625.417 52.036 C 630.816 49.721, 631.988 46.352, 627.051 47.340 L 624.103 47.929 624.691 42.965 L 625.279 38 621.389 38.078 C 619.250 38.120, 615.392 38.908, 612.814 39.828 M 906.741 39.429 C 901.755 41.208, 900 42.781, 900 45.467 C 900 47.942, 902.363 50.417, 905.694 51.431 C 907.570 52.002, 908.466 51.190, 911.871 45.836 C 914.061 42.390, 915.635 39.218, 915.368 38.786 C 914.654 37.631, 911.020 37.902, 906.741 39.429 M 914.633 47.728 C 911.181 53.885, 910.034 56.830, 910.685 57.862 C 911.190 58.662, 913.998 60.227, 916.926 61.340 C 921.975 63.258, 925.986 67.381, 925.996 70.663 C 925.999 71.665, 914.080 76.080, 913.170 75.415 C 912.989 75.282, 913.507 74.122, 914.322 72.837 C 915.137 71.552, 916.108 69.040, 916.480 67.255 C 917.079 64.381, 916.854 63.895, 914.513 63.005 C 913.059 62.452, 911.526 62, 911.105 62 C 910.685 62, 909.571 65.583, 908.630 69.962 C 906.942 77.817, 906.872 77.933, 903.448 78.576 C 893.804 80.385, 901.668 81, 934.441 81 L 970 81 970 70 L 970 59 962.737 59 C 956.153 59, 955.007 59.314, 950.487 62.355 C 941.714 68.258, 941.607 68.225, 939.492 58.967 C 937.477 50.144, 936.172 47.612, 934.262 48.820 C 933.307 49.424, 933.585 51.641, 935.481 58.532 C 936.832 63.444, 937.614 67.750, 937.219 68.102 C 936.824 68.454, 935.281 69.029, 933.791 69.380 C 931.274 69.972, 931.004 69.715, 929.992 65.759 C 929.392 63.416, 928.739 61.007, 928.542 60.405 C 928.344 59.803, 926.116 58.732, 923.591 58.025 C 921.066 57.319, 919 56.556, 919 56.330 C 919 56.105, 919.911 54.135, 921.024 51.952 C 922.951 48.176, 923.229 48.012, 926.774 48.564 C 929.143 48.932, 931.878 48.561, 934.281 47.545 L 938.062 45.947 935.420 42.483 C 932.716 38.938, 930.435 38.732, 931.319 42.113 C 932.022 44.801, 929.262 44.542, 924.785 41.500 C 922.762 40.125, 920.745 39.011, 920.303 39.024 C 919.861 39.038, 917.310 42.954, 914.633 47.728 M 42.196 43.897 C 32.050 47.402, 27.170 54.765, 26.268 67.928 C 24.894 87.964, 34.688 98.262, 53.670 96.738 C 62.523 96.028, 68.474 92.308, 72.500 84.969 C 75.300 79.864, 75.499 78.801, 75.483 69 C 75.468 60.121, 75.125 57.859, 73.262 54.347 C 67.612 43.699, 55.026 39.466, 42.196 43.897 M 92.786 43.538 C 82.455 46.829, 78.810 58.867, 85.673 67.024 C 87.100 68.719, 91.019 71.483, 94.383 73.165 C 102.304 77.127, 104 78.703, 104 82.098 C 104 87.899, 95.803 89.798, 87.536 85.912 C 85.093 84.764, 82.623 84.115, 82.047 84.471 C 80.306 85.547, 80.871 90.871, 82.947 92.947 C 87.585 97.585, 101.758 98.167, 108.506 93.996 C 114.930 90.026, 117.865 80.485, 114.595 74.200 C 112.464 70.105, 109.180 67.509, 101.679 63.989 C 94.937 60.825, 92.670 58.248, 93.771 55 C 95.230 50.695, 100.883 49.855, 107.669 52.937 C 109.961 53.978, 112.099 54.568, 112.419 54.248 C 112.738 53.928, 113 51.919, 113 49.782 C 113 46.284, 112.650 45.752, 109.480 44.427 C 104.138 42.195, 98.023 41.869, 92.786 43.538 M 218.664 43.172 C 213.714 44.549, 208.279 49.995, 207.451 54.407 C 205.955 62.386, 209.745 68.344, 219.383 73.165 C 227.304 77.127, 229 78.703, 229 82.098 C 229 87.944, 220.796 89.795, 212.394 85.845 C 207.391 83.493, 206.047 84.105, 206.015 88.750 C 205.964 96.324, 224.130 99.791, 233.506 93.996 C 239.930 90.026, 242.865 80.485, 239.595 74.200 C 237.464 70.105, 234.180 67.509, 226.679 63.989 C 219.937 60.825, 217.670 58.248, 218.771 55 C 220.230 50.695, 225.883 49.855, 232.669 52.937 C 234.961 53.978, 237.099 54.568, 237.419 54.248 C 237.738 53.928, 238 51.919, 238 49.782 C 238 46.284, 237.650 45.752, 234.480 44.427 C 229.641 42.405, 223.245 41.898, 218.664 43.172 M 256.786 43.538 C 246.455 46.829, 242.810 58.867, 249.673 67.024 C 251.100 68.719, 255.019 71.483, 258.383 73.165 C 266.304 77.127, 268 78.703, 268 82.098 C 268 87.944, 259.796 89.795, 251.394 85.845 C 246.391 83.493, 245.047 84.105, 245.015 88.750 C 244.964 96.324, 263.130 99.791, 272.506 93.996 C 278.930 90.026, 281.865 80.485, 278.595 74.200 C 276.464 70.105, 273.180 67.509, 265.679 63.989 C 258.937 60.825, 256.670 58.248, 257.771 55 C 259.230 50.695, 264.883 49.855, 271.669 52.937 C 273.961 53.978, 276.099 54.568, 276.419 54.248 C 276.738 53.928, 277 51.919, 277 49.782 C 277 46.284, 276.650 45.752, 273.480 44.427 C 268.138 42.195, 262.023 41.869, 256.786 43.538 M 124.685 44.458 C 123.137 46.006, 122.992 48.634, 123.233 70.839 L 123.500 95.500 129 95.500 L 134.500 95.500 134.785 85.250 L 135.070 75 137.996 75 C 142.050 75, 144.217 77.714, 148.023 87.560 L 151.286 96 157.143 96 C 160.364 96, 163 95.586, 163 95.079 C 163 93.043, 155.960 77.636, 153.639 74.593 L 151.157 71.339 154.083 69.610 C 162.848 64.432, 161.692 49.297, 152.228 45.308 C 149.959 44.352, 144.177 43.542, 137.452 43.238 C 127.911 42.807, 126.170 42.973, 124.685 44.458 M 171.571 44.571 C 170.231 45.912, 170 49.640, 170 69.949 C 170 89.023, 170.276 93.984, 171.386 94.906 C 172.326 95.686, 177.397 95.967, 187.136 95.778 L 201.500 95.500 201.808 91.786 L 202.116 88.071 191.808 87.786 L 181.500 87.500 181.297 80.288 L 181.095 73.076 189.797 72.788 L 198.500 72.500 198.822 69.690 C 199.373 64.884, 197.572 63.852, 189.078 64.104 L 181.500 64.329 181.203 58.200 L 180.906 52.071 191.191 51.785 C 202.345 51.476, 202.990 51.080, 201.570 45.421 C 200.963 43.005, 200.934 43, 187.052 43 C 175.741 43, 172.849 43.293, 171.571 44.571 M 1166.072 47.866 C 1164.406 50.979, 1164.782 52, 1167.594 52 C 1169.346 52, 1170.357 52.649, 1170.710 54 C 1171.531 57.139, 1173.779 56.353, 1175.906 52.184 L 1177.853 48.368 1175.039 48.781 C 1173.449 49.014, 1171.121 48.470, 1169.684 47.529 C 1167.270 45.947, 1167.090 45.964, 1166.072 47.866 M 1206.664 50.703 C 1201.078 53.705, 1192.363 55.962, 1186.267 55.984 C 1182.197 55.999, 1181.936 56.192, 1179.500 61 C 1176.968 65.996, 1176.968 66, 1179.115 66 C 1180.297 66, 1182.741 65.087, 1184.546 63.972 L 1187.828 61.943 1191.532 64.457 C 1193.570 65.840, 1196.871 67.423, 1198.868 67.975 C 1202.064 68.857, 1203.027 68.649, 1206.894 66.239 C 1211.316 63.482, 1216.144 56.460, 1217.543 50.750 C 1218.179 48.156, 1218.026 48.003, 1214.858 48.052 C 1213.011 48.081, 1209.324 49.274, 1206.664 50.703 M 43.514 54.168 C 39.608 57.240, 38 61.857, 38 70 C 38 81.766, 41.464 86.989, 49.740 87.701 C 59.389 88.532, 64 82.647, 64 69.500 C 64 56.672, 60.639 52, 51.412 52 C 47.651 52, 45.529 52.582, 43.514 54.168 M 135 59 L 135 66 139.845 66 C 145.704 66, 148 63.953, 148 58.728 C 148 54.169, 145.188 52, 139.277 52 L 135 52 135 59 M 621.381 59.285 C 616.726 65.388, 616.193 71.654, 619.887 76.841 C 627.825 87.989, 645.971 82.992, 645.993 69.651 C 646.008 60.850, 640.595 55.547, 630.823 54.788 L 625.146 54.348 621.381 59.285 M 581.457 56.853 C 579.784 57.879, 577.561 60.019, 576.517 61.609 C 574.081 65.320, 574.003 72.829, 576.362 76.430 C 582.310 85.508, 596.918 85.014, 601.394 75.583 C 602.277 73.721, 603 71.751, 603 71.206 C 603 70.660, 603.675 69.955, 604.500 69.638 C 606.322 68.939, 606.495 67, 604.736 67 C 603.543 67, 598.975 58.652, 598.990 56.500 C 598.994 55.948, 595.749 55.385, 591.748 55.243 C 586.104 55.044, 583.827 55.400, 581.457 56.853 M 584.500 60.161 C 579.571 62.871, 577.496 69.321, 580.030 74.055 C 581.318 76.463, 586.112 79, 589.374 79 C 592.286 79, 597.536 74.884, 598.287 72.012 C 598.721 70.352, 598.326 70, 596.029 70 C 594.498 70, 592.685 70.675, 592 71.500 C 590.420 73.404, 587.599 73.427, 586.040 71.548 C 584.295 69.446, 585.144 66.737, 587.992 65.317 C 591.522 63.557, 593.371 60.854, 591.750 59.824 C 590.003 58.715, 586.864 58.861, 584.500 60.161 M 630 60.807 C 630 61.959, 631.344 63.821, 633.055 65.039 C 636.422 67.437, 636.714 70.534, 633.750 72.393 C 631.210 73.985, 628.509 71.935, 628.461 68.379 C 628.414 64.853, 627.153 61, 626.048 61 C 624.491 61, 622 65.943, 622 69.031 C 622 73.185, 623.464 75.671, 626.980 77.490 C 631.636 79.897, 634.820 79.380, 638.600 75.600 C 640.997 73.203, 642 71.290, 642 69.116 C 642 65.132, 637.571 60.200, 633.250 59.373 C 630.435 58.833, 630 59.025, 630 60.807 M 593.603 64.483 C 591.966 66.981, 591.977 67, 594.977 67 C 598.222 67, 599.028 65.098, 596.626 63.105 C 595.550 62.212, 594.896 62.509, 593.603 64.483 M 822.229 65.931 C 820.195 67.654, 820.056 68.294, 820.900 72.048 C 821.952 76.731, 823.286 78.559, 824.915 77.553 C 825.575 77.145, 825.766 75.389, 825.400 73.103 C 824.839 69.592, 825.014 69.237, 827.898 68.042 C 831.020 66.749, 832.073 65.012, 829.750 64.986 C 829.063 64.979, 827.600 64.755, 826.500 64.490 C 825.374 64.218, 823.508 64.847, 822.229 65.931 M 698.657 67.401 C 696.137 71.247, 689.197 73.354, 680.991 72.767 C 674.784 72.323, 674.121 72.441, 675.238 73.791 C 678.833 78.137, 693.828 80.768, 699.057 77.970 C 700.489 77.203, 701.816 77.372, 704.241 78.631 C 706.033 79.561, 710.687 80.529, 714.583 80.782 C 720.281 81.152, 722.586 80.835, 726.371 79.160 C 730.121 77.501, 731.627 77.289, 733.788 78.115 C 740.591 80.713, 752.981 78.343, 756.829 73.706 C 757.856 72.468, 757.056 72.335, 751.154 72.757 C 742.953 73.344, 738.122 71.968, 734.037 67.883 L 731.076 64.922 726.861 67.711 C 723.310 70.060, 721.599 70.500, 716 70.500 C 710.424 70.500, 708.685 70.057, 705.198 67.750 C 702.913 66.237, 700.860 65, 700.636 65 C 700.413 65, 699.522 66.081, 698.657 67.401 M 831.548 68.922 C 830.583 70.484, 835.568 78, 837.571 78 C 838.932 78, 838.918 77.669, 837.450 75.184 C 834.163 69.619, 832.323 67.668, 831.548 68.922 M 1049 75.465 L 1049 82 1073.500 82 L 1098 82 1098 75.465 C 1098 69.134, 1097.934 68.965, 1095.898 70.054 C 1094.645 70.725, 1091.719 70.940, 1088.648 70.585 C 1082.110 69.831, 1080.586 69.832, 1074.639 70.595 C 1071.580 70.988, 1068.938 70.770, 1067.514 70.007 C 1065.779 69.079, 1064.741 69.068, 1063.072 69.961 C 1060.238 71.478, 1053.881 71.542, 1051.151 70.081 C 1049.052 68.957, 1049 69.087, 1049 75.465 M 1154.734 71.497 C 1150.963 74.816, 1144.676 76.344, 1137.750 75.627 C 1134.588 75.299, 1132 75.240, 1132 75.495 C 1132 75.750, 1133.688 76.805, 1135.750 77.838 C 1140.663 80.298, 1147.468 81.132, 1152.824 79.928 C 1156.073 79.198, 1158.384 79.334, 1162.246 80.480 C 1168.749 82.412, 1175.706 82.416, 1181.374 80.491 C 1184.940 79.281, 1186.820 79.197, 1190.881 80.068 C 1197.413 81.469, 1205.990 79.811, 1209.785 76.414 L 1212.500 73.984 1209.685 74.992 C 1203.110 77.346, 1193.239 75.452, 1188.401 70.907 L 1186.275 68.910 1181.388 71.535 C 1175.173 74.873, 1166.239 74.731, 1161.303 71.216 C 1159.592 69.997, 1158.036 69.014, 1157.846 69.032 C 1157.656 69.049, 1156.255 70.159, 1154.734 71.497 M 1006.229 76.171 C 1005.553 76.847, 1005 78.435, 1005 79.700 C 1005 81.987, 1005.077 82, 1018.563 82 L 1032.127 82 1031.813 78.750 L 1031.500 75.500 1019.479 75.221 C 1010.979 75.024, 1007.098 75.302, 1006.229 76.171 M 460.568 109.765 C 459.448 110.885, 459.963 141.563, 461.122 142.722 C 463.759 145.359, 465 142.903, 465 135.048 C 465 126.480, 466.397 124, 471.222 124 C 474.515 124, 475 125.432, 475 135.151 C 475 142.863, 475.078 143.128, 477.250 142.820 C 479.385 142.516, 479.499 142.063, 479.481 133.927 C 479.454 121.511, 475.891 117.324, 468.130 120.587 L 465.092 121.865 464.796 115.774 C 464.563 110.971, 464.144 109.632, 462.818 109.440 C 461.893 109.306, 460.881 109.453, 460.568 109.765 M 538.701 109.632 C 538.316 110.018, 538 117.403, 538 126.044 C 538 141.956, 538.689 145.046, 541.809 143.118 C 542.736 142.545, 542.981 138.181, 542.776 125.938 C 542.543 112.058, 542.261 109.480, 540.951 109.228 C 540.099 109.065, 539.087 109.246, 538.701 109.632 M 247.357 111.992 C 246.178 112.467, 244.491 113.889, 243.607 115.151 C 240.156 120.077, 242.301 124.670, 250.101 129.057 C 256.866 132.862, 257.847 135.744, 253.375 138.674 C 250.945 140.266, 250.422 140.276, 246.360 138.816 C 243.946 137.948, 241.751 137.593, 241.482 138.029 C 240.392 139.792, 242.427 142.048, 246.103 143.149 C 253.881 145.479, 261 140.957, 261 133.686 C 261 130.670, 257.296 126.888, 252.007 124.503 C 247.163 122.319, 245.583 118.511, 248.603 116.300 C 249.646 115.536, 251.400 115.152, 252.500 115.448 C 253.600 115.743, 255.512 116.265, 256.750 116.609 C 258.547 117.107, 259 116.826, 259 115.214 C 259 111.984, 252.105 110.076, 247.357 111.992 M 804.667 116.667 C 804.300 117.033, 804 118.789, 804 120.568 C 804 123.638, 803.816 123.797, 800.373 123.699 C 797.709 123.624, 796.248 124.211, 794.873 125.909 C 792.589 128.729, 792.424 134.732, 794.546 137.763 C 795.874 139.658, 796.935 139.947, 802.046 139.806 L 808 139.642 808 127.821 C 808 118.637, 807.703 116, 806.667 116 C 805.933 116, 805.033 116.300, 804.667 116.667 M 1009.667 116.667 C 1009.300 117.033, 1009 118.789, 1009 120.568 C 1009 123.638, 1008.816 123.797, 1005.373 123.699 C 1002.709 123.624, 1001.248 124.211, 999.873 125.909 C 997.589 128.729, 997.424 134.732, 999.546 137.763 C 1000.874 139.658, 1001.935 139.947, 1007.046 139.806 L 1013 139.642 1013 127.821 C 1013 118.637, 1012.703 116, 1011.667 116 C 1010.933 116, 1010.033 116.300, 1009.667 116.667 M 746.014 118.738 C 741.885 120.825, 740.035 124.087, 740.015 129.316 C 739.987 136.605, 743.188 139.921, 750.298 139.968 C 754.196 139.994, 755.544 139.516, 757.491 137.416 C 760.101 134.599, 760.897 130.403, 759.828 125.099 C 758.490 118.464, 752.247 115.589, 746.014 118.738 M 300.304 120.514 C 298.165 121.413, 296.893 121.493, 296.174 120.774 C 295.602 120.202, 294.429 120.005, 293.567 120.336 C 292.284 120.828, 292 122.811, 292 131.269 C 292 141.639, 292.826 144.388, 295.622 143.315 C 296.630 142.928, 297 140.687, 297 134.964 C 297 126.182, 298.369 123.673, 302.876 124.196 C 305.450 124.494, 305.506 124.661, 305.794 132.950 C 306.095 141.618, 307.069 144.294, 309.573 143.334 C 310.639 142.925, 311 140.828, 311 135.048 C 311 126.480, 312.671 123.533, 317.168 124.170 C 319.387 124.484, 319.514 124.934, 319.792 133.467 C 320.080 142.312, 320.887 144.364, 323.659 143.300 C 324.639 142.925, 325 140.428, 325 134.028 C 325 126.820, 324.650 124.825, 323.024 122.758 C 320.314 119.313, 317.696 118.861, 313.333 121.085 C 310.214 122.675, 309.381 122.763, 308.064 121.639 C 305.472 119.427, 303.552 119.149, 300.304 120.514 M 339.022 120.633 C 336.488 121.698, 335.470 121.760, 334.926 120.880 C 334.528 120.236, 333.481 119.985, 332.601 120.323 C 331.276 120.831, 331 122.718, 331 131.269 C 331 141.639, 331.826 144.388, 334.622 143.315 C 335.630 142.928, 336 140.687, 336 134.964 C 336 126.182, 337.369 123.673, 341.876 124.196 C 344.450 124.494, 344.506 124.661, 344.794 132.950 C 345.095 141.618, 346.069 144.294, 348.573 143.334 C 349.639 142.925, 350 140.828, 350 135.048 C 350 126.480, 351.671 123.533, 356.168 124.170 C 358.387 124.484, 358.514 124.934, 358.792 133.467 C 359.080 142.312, 359.887 144.364, 362.659 143.300 C 363.639 142.925, 364 140.428, 364 134.028 C 364 126.820, 363.650 124.825, 362.024 122.758 C 359.314 119.313, 356.696 118.861, 352.333 121.085 C 349.214 122.675, 348.381 122.763, 347.064 121.639 C 344.430 119.391, 342.539 119.154, 339.022 120.633 M 376.212 120.139 C 371.345 121.527, 368.791 126.175, 369.277 132.758 C 369.910 141.320, 375.689 145.427, 384.065 143.267 C 386.486 142.643, 387.594 141.735, 387.820 140.189 C 388.109 138.205, 387.889 138.092, 385.505 138.998 C 379.657 141.222, 374 139.116, 374 134.715 C 374 133.388, 375.340 133.033, 381.250 132.794 C 388 132.520, 388.523 132.338, 388.833 130.148 C 389.874 122.796, 383.796 117.976, 376.212 120.139 M 401.578 120.536 C 399.395 121.674, 398.471 121.763, 397.929 120.884 C 397.529 120.238, 396.481 119.985, 395.601 120.323 C 394.276 120.831, 394 122.718, 394 131.269 C 394 141.639, 394.826 144.388, 397.622 143.315 C 398.628 142.929, 399 140.700, 399 135.048 C 399 126.696, 400.408 124, 404.770 124 C 407.626 124, 408.358 122.501, 406.438 120.581 C 404.545 118.688, 405.113 118.693, 401.578 120.536 M 423.285 120.500 C 416.888 123.234, 418.087 129.824, 425.586 133.141 C 428.610 134.479, 430 135.703, 430 137.028 C 430 139.492, 425.750 140.663, 422.379 139.127 C 419.017 137.595, 418.814 137.667, 419.180 140.250 C 419.629 143.411, 426.079 145.027, 429.833 142.920 C 433.160 141.053, 435.054 137.352, 434.089 134.605 C 433.682 133.447, 431.245 131.479, 428.674 130.231 C 421.552 126.773, 422.678 121.298, 429.987 123.846 C 432.645 124.772, 433 124.673, 433 123.007 C 433 121.968, 432.663 120.929, 432.250 120.697 C 429.904 119.381, 426.100 119.298, 423.285 120.500 M 443.960 120.780 C 439.782 122.874, 438.034 126.113, 438.015 131.800 C 437.996 137.358, 440.137 141.400, 443.933 142.972 C 448.832 145.002, 455 142.705, 455 138.852 C 455 137.066, 454.818 137.043, 452.050 138.474 C 448.207 140.462, 446.671 140.399, 444.655 138.171 C 442.690 136, 442.375 127.025, 444.200 125.200 C 445.652 123.748, 451.637 123.604, 452.500 125 C 453.520 126.650, 455 126.130, 455 124.122 C 455 120.076, 448.994 118.258, 443.960 120.780 M 492.212 120.153 C 487.949 121.351, 485.009 126.121, 485.004 131.846 C 484.996 140.611, 491.120 145.479, 499.132 143.079 C 503.756 141.693, 506.075 138.513, 506.736 132.651 C 507.770 123.474, 501.033 117.676, 492.212 120.153 M 518.212 120.153 C 513.949 121.351, 511.009 126.121, 511.004 131.846 C 510.996 140.611, 517.120 145.479, 525.132 143.079 C 529.756 141.693, 532.075 138.513, 532.736 132.651 C 533.770 123.474, 527.033 117.676, 518.212 120.153 M 783 121.500 C 782.477 122.875, 781.588 124, 781.025 124 C 780.461 124, 780 124.450, 780 125 C 780 125.550, 780.654 126, 781.454 126 C 782.554 126, 782.981 127.646, 783.204 132.750 L 783.500 139.500 786.750 139.500 C 788.538 139.500, 789.955 139.050, 789.900 138.500 C 789.845 137.950, 789.324 137.636, 788.742 137.803 C 787.002 138.300, 786.032 135.789, 786.015 130.750 C 786.001 126.346, 786.182 126, 788.500 126 C 789.875 126, 791 125.550, 791 125 C 791 124.450, 790.089 124, 788.975 124 C 787.736 124, 786.582 123.031, 786 121.500 C 785.477 120.125, 784.802 119, 784.500 119 C 784.198 119, 783.523 120.125, 783 121.500 M 930.960 121.605 C 930.145 123.748, 929.527 124.098, 927.464 123.580 C 926.086 123.235, 924.096 123.414, 923.040 123.979 C 921.739 124.675, 920.919 124.678, 920.492 123.986 C 918.977 121.535, 918 124.700, 918 132.059 C 918 139.333, 918.168 140, 920 140 C 921.773 140, 922 139.333, 922 134.122 C 922 127.480, 923.294 125.674, 927.690 126.178 C 930.388 126.487, 930.520 126.758, 931 133 L 931.500 139.500 934.750 139.500 C 936.538 139.500, 937.955 139.050, 937.900 138.500 C 937.845 137.950, 937.324 137.636, 936.742 137.803 C 935.002 138.300, 934.032 135.789, 934.015 130.750 C 934.001 126.346, 934.182 126, 936.500 126 C 939.611 126, 939.811 124.254, 936.750 123.820 C 935.304 123.614, 934.386 122.696, 934.180 121.250 C 933.752 118.230, 932.177 118.404, 930.960 121.605 M 1116 121.500 C 1115.477 122.875, 1114.588 124, 1114.025 124 C 1113.461 124, 1113 124.450, 1113 125 C 1113 125.550, 1113.654 126, 1114.454 126 C 1115.554 126, 1115.981 127.646, 1116.204 132.750 L 1116.500 139.500 1119.750 139.500 C 1121.537 139.500, 1122.955 139.050, 1122.900 138.500 C 1122.845 137.950, 1122.324 137.636, 1121.742 137.803 C 1120.002 138.300, 1119.032 135.789, 1119.015 130.750 C 1119.001 126.346, 1119.182 126, 1121.500 126 C 1122.875 126, 1124 125.550, 1124 125 C 1124 124.450, 1123.089 124, 1121.975 124 C 1120.736 124, 1119.582 123.031, 1119 121.500 C 1118.477 120.125, 1117.802 119, 1117.500 119 C 1117.198 119, 1116.523 120.125, 1116 121.500 M 266 127.851 C 266 137.769, 267.241 141.443, 271.137 143.057 C 273.627 144.088, 274.691 144.041, 277.332 142.782 C 280.053 141.484, 280.711 141.465, 281.820 142.653 C 284.297 145.304, 285 142.827, 285 131.441 C 285 120.667, 284.883 120, 283 120 C 281.170 120, 281 120.667, 281 127.826 C 281 134.713, 280.722 135.912, 278.686 137.826 C 277.413 139.022, 275.703 140, 274.886 140 C 271.814 140, 271 137.654, 271 128.800 C 271 120.080, 270.977 120, 268.500 120 C 266.046 120, 266 120.143, 266 127.851 M 746.455 122.455 C 741.572 127.337, 744.215 137.250, 750.400 137.250 C 754.645 137.250, 756.385 134.819, 756.385 128.887 C 756.385 124.710, 755.947 123.375, 754.082 121.865 C 751.022 119.387, 749.396 119.513, 746.455 122.455 M 375.655 124.829 C 372.749 128.040, 373.633 129, 379.500 129 C 385.430 129, 385.825 128.622, 383.443 125.223 C 381.555 122.527, 377.905 122.342, 375.655 124.829 M 494 123.704 C 491.277 124.659, 490 127.319, 490 132.036 C 490 139.324, 495.435 142.565, 500 138 C 502.316 135.684, 502.766 128.357, 500.750 125.792 C 499.288 123.932, 496.133 122.956, 494 123.704 M 520 123.704 C 517.277 124.659, 516 127.319, 516 132.036 C 516 139.324, 521.435 142.565, 526 138 C 528.316 135.684, 528.766 128.357, 526.750 125.792 C 525.288 123.932, 522.133 122.956, 520 123.704 M 764.598 123.736 C 763.595 124.739, 763.933 136.006, 765.027 138.051 C 765.882 139.648, 767.060 139.943, 772.027 139.807 L 778 139.642 778 131.988 C 778 123.901, 777.659 122.810, 775.402 123.676 C 774.420 124.053, 774 125.969, 774 130.072 C 774 134.641, 773.615 136.128, 772.250 136.830 C 768.947 138.528, 768 137.123, 768 130.524 C 768 126.033, 767.596 124.059, 766.598 123.676 C 765.827 123.380, 764.927 123.407, 764.598 123.736 M 815.400 124.405 C 811.908 125.951, 811 127.639, 811 132.582 C 811 137.270, 813.917 140, 818.927 140 C 823.684 140, 827 136.499, 827 131.476 C 827 125.209, 821.356 121.769, 815.400 124.405 M 834.259 123.686 C 829.160 124.711, 827.037 134.037, 831 138 C 834.058 141.058, 840.283 140.727, 842.927 137.365 C 848.352 130.468, 842.948 121.940, 834.259 123.686 M 848.683 123.650 C 848.308 124.026, 848 127.858, 848 132.167 C 848 139.333, 848.170 140, 850 140 C 851.770 140, 852 139.333, 852 134.200 C 852 128.186, 853.120 126, 856.200 126 C 857.190 126, 858 125.536, 858 124.969 C 858 123.350, 855.349 122.743, 853.231 123.876 C 851.988 124.542, 850.963 124.563, 850.337 123.937 C 849.803 123.403, 849.059 123.274, 848.683 123.650 M 869.223 124.557 C 865.837 126.928, 866.461 129.635, 871.065 132.541 C 875.940 135.619, 875.731 137.589, 870.565 137.271 C 865.533 136.961, 866.327 139.388, 871.397 139.815 C 878.636 140.423, 880.684 134.516, 874.500 130.867 C 870.219 128.342, 869.820 125.771, 873.750 126.031 C 878.119 126.319, 878.630 126.035, 876.559 124.468 C 874.070 122.586, 872.001 122.611, 869.223 124.557 M 882.658 123.675 C 882.296 124.037, 882 129.208, 882 135.167 C 882 145.333, 882.123 146, 884 146 C 885.609 146, 886 145.333, 886 142.594 C 886 139.689, 886.292 139.264, 887.984 139.706 C 891.272 140.566, 894.587 139.201, 895.829 136.477 C 897.731 132.301, 897.249 128.158, 894.545 125.455 C 891.968 122.877, 890.783 122.623, 887.500 123.947 C 886.400 124.390, 885.009 124.362, 884.408 123.885 C 883.807 123.408, 883.020 123.313, 882.658 123.675 M 904.259 123.686 C 899.160 124.711, 897.037 134.037, 901 138 C 904.058 141.058, 910.283 140.727, 912.927 137.365 C 918.352 130.468, 912.948 121.940, 904.259 123.686 M 944 124.290 C 939.866 126.374, 940.248 129.500, 945.003 132.502 C 949.934 135.615, 949.753 137.591, 944.565 137.271 C 939.533 136.961, 940.327 139.388, 945.397 139.815 C 952.636 140.423, 954.684 134.516, 948.500 130.867 C 944.219 128.342, 943.820 125.771, 947.750 126.031 C 952.119 126.319, 952.630 126.035, 950.559 124.468 C 948.204 122.687, 947.232 122.660, 944 124.290 M 966.250 124.031 C 962.524 125.529, 963.578 127.091, 967.853 126.408 C 970.958 125.911, 971.836 126.131, 972.377 127.539 C 973.189 129.655, 973.487 129.412, 968 131.109 C 964.578 132.167, 963.422 133.052, 963.173 134.805 C 962.632 138.621, 964.661 139.998, 970.616 139.861 L 976 139.737 976 132.925 C 976 127.020, 975.704 125.906, 973.777 124.557 C 971.297 122.819, 969.565 122.699, 966.250 124.031 M 987.681 123.653 C 987.322 124.011, 985.672 124.267, 984.014 124.219 L 981 124.134 981 132.140 C 981 139.226, 981.201 140.108, 982.750 139.814 C 984.127 139.552, 984.563 138.273, 984.797 133.823 C 985.107 127.940, 986.759 125.310, 989.487 126.357 C 990.624 126.793, 991 128.561, 991 133.469 C 991 139.333, 991.204 140, 993 140 C 994.795 140, 995 139.333, 995 133.500 C 995 128.333, 994.590 126.590, 993 125 C 990.983 122.983, 988.883 122.451, 987.681 123.653 M 1025.683 123.650 C 1025.307 124.026, 1025 127.858, 1025 132.167 C 1025 139.333, 1025.170 140, 1027 140 C 1028.770 140, 1029 139.333, 1029 134.200 C 1029 128.186, 1030.120 126, 1033.200 126 C 1034.190 126, 1035 125.536, 1035 124.969 C 1035 123.350, 1032.349 122.743, 1030.231 123.876 C 1028.988 124.542, 1027.963 124.563, 1027.337 123.937 C 1026.803 123.403, 1026.059 123.274, 1025.683 123.650 M 1040.315 123.985 C 1037.460 125.164, 1036 128.022, 1036 132.434 C 1036 137.727, 1038.909 140.184, 1044.724 139.803 C 1047.427 139.626, 1049.523 138.954, 1049.777 138.185 C 1050.107 137.182, 1049.351 137.031, 1046.594 137.548 C 1042.539 138.309, 1040 136.895, 1040 133.878 C 1040 132.268, 1040.786 132, 1045.500 132 C 1050.226 132, 1051 131.734, 1051 130.111 C 1051 125.611, 1044.879 122.102, 1040.315 123.985 M 1057.315 124.007 C 1053.021 125.737, 1051.487 133.394, 1054.557 137.777 C 1056.432 140.455, 1063.013 140.894, 1065.020 138.476 C 1066.725 136.421, 1065.655 135.579, 1063.086 136.954 C 1059.640 138.798, 1057 136.688, 1057 132.087 C 1057 127.348, 1058.869 125.593, 1062.959 126.491 C 1066.744 127.322, 1067.112 125.373, 1063.435 123.975 C 1060.449 122.840, 1060.208 122.841, 1057.315 124.007 M 1069.683 123.650 C 1069.307 124.026, 1069 127.858, 1069 132.167 C 1069 139.333, 1069.170 140, 1071 140 C 1072.770 140, 1073 139.333, 1073 134.200 C 1073 128.186, 1074.120 126, 1077.200 126 C 1078.190 126, 1079 125.536, 1079 124.969 C 1079 123.350, 1076.349 122.743, 1074.231 123.876 C 1072.988 124.542, 1071.963 124.563, 1071.337 123.937 C 1070.803 123.403, 1070.059 123.274, 1069.683 123.650 M 1084.315 123.985 C 1081.460 125.164, 1080 128.022, 1080 132.434 C 1080 137.727, 1082.909 140.184, 1088.724 139.803 C 1091.427 139.626, 1093.523 138.954, 1093.777 138.185 C 1094.107 137.182, 1093.351 137.031, 1090.594 137.548 C 1086.539 138.309, 1084 136.895, 1084 133.878 C 1084 132.268, 1084.786 132, 1089.500 132 C 1094.226 132, 1095 131.734, 1095 130.111 C 1095 125.611, 1088.879 122.102, 1084.315 123.985 M 1100.250 124.031 C 1096.524 125.529, 1097.578 127.091, 1101.853 126.408 C 1104.958 125.911, 1105.836 126.131, 1106.377 127.539 C 1107.189 129.655, 1107.487 129.412, 1102 131.109 C 1098.578 132.167, 1097.422 133.052, 1097.173 134.805 C 1096.632 138.621, 1098.661 139.998, 1104.616 139.861 L 1110 139.737 1110 132.925 C 1110 127.020, 1109.704 125.906, 1107.777 124.557 C 1105.297 122.819, 1103.565 122.699, 1100.250 124.031 M 1127.598 123.736 C 1127.269 124.064, 1127 127.858, 1127 132.167 C 1127 139.333, 1127.170 140, 1129 140 C 1130.831 140, 1131 139.333, 1131 132.107 C 1131 126.258, 1130.637 124.075, 1129.598 123.676 C 1128.827 123.380, 1127.927 123.407, 1127.598 123.736 M 1139.259 123.686 C 1134.160 124.711, 1132.037 134.037, 1136 138 C 1139.058 141.058, 1145.283 140.727, 1147.927 137.365 C 1153.352 130.468, 1147.948 121.940, 1139.259 123.686 M 1153.658 123.675 C 1153.296 124.037, 1153 127.858, 1153 132.167 C 1153 139.333, 1153.170 140, 1155 140 C 1156.773 140, 1157 139.333, 1157 134.122 C 1157 127.953, 1158.569 125.237, 1161.487 126.357 C 1162.624 126.793, 1163 128.561, 1163 133.469 C 1163 139.333, 1163.204 140, 1165 140 C 1166.795 140, 1167 139.333, 1167 133.500 C 1167 128.333, 1166.590 126.590, 1165 125 C 1162.863 122.863, 1161.669 122.670, 1158.500 123.947 C 1157.400 124.390, 1156.009 124.362, 1155.408 123.885 C 1154.807 123.408, 1154.020 123.313, 1153.658 123.675 M 798.200 127.200 C 796.534 128.866, 796.695 135.502, 798.436 136.947 C 799.502 137.832, 800.404 137.854, 801.936 137.034 C 805.530 135.111, 804.344 126, 800.500 126 C 799.895 126, 798.860 126.540, 798.200 127.200 M 816.200 127.200 C 814.169 129.231, 814.703 135.771, 817 137 C 820.335 138.785, 823 136.637, 823 132.165 C 823 128.152, 821.604 126, 819 126 C 818.120 126, 816.860 126.540, 816.200 127.200 M 834.200 127.200 C 832.169 129.231, 832.703 135.771, 835 137 C 838.335 138.785, 841 136.637, 841 132.165 C 841 128.152, 839.604 126, 837 126 C 836.120 126, 834.860 126.540, 834.200 127.200 M 887.200 127.200 C 886.540 127.860, 886 130.094, 886 132.165 C 886 136.756, 888.858 138.999, 891.431 136.427 C 894.346 133.511, 892.956 126, 889.500 126 C 888.895 126, 887.860 126.540, 887.200 127.200 M 904.200 127.200 C 902.169 129.231, 902.703 135.771, 905 137 C 908.335 138.785, 911 136.637, 911 132.165 C 911 128.152, 909.604 126, 907 126 C 906.120 126, 904.860 126.540, 904.200 127.200 M 1003.200 127.200 C 1001.534 128.866, 1001.695 135.502, 1003.436 136.947 C 1004.502 137.832, 1005.404 137.854, 1006.936 137.034 C 1010.530 135.111, 1009.344 126, 1005.500 126 C 1004.895 126, 1003.860 126.540, 1003.200 127.200 M 1040.628 127.528 C 1039.689 129.973, 1039.721 130, 1043.573 130 C 1046.436 130, 1047.081 129.652, 1046.815 128.250 C 1046.368 125.897, 1041.473 125.325, 1040.628 127.528 M 1084.628 127.528 C 1083.689 129.973, 1083.721 130, 1087.573 130 C 1090.436 130, 1091.081 129.652, 1090.815 128.250 C 1090.368 125.897, 1085.473 125.325, 1084.628 127.528 M 1139.200 127.200 C 1137.169 129.231, 1137.703 135.771, 1140 137 C 1143.335 138.785, 1146 136.637, 1146 132.165 C 1146 128.152, 1144.604 126, 1142 126 C 1141.120 126, 1139.860 126.540, 1139.200 127.200 M 967.336 134.567 C 967.005 135.429, 967.257 136.657, 967.895 137.295 C 969.326 138.726, 972.339 137.105, 972.823 134.643 C 973.255 132.449, 968.176 132.379, 967.336 134.567 M 1101.336 134.567 C 1101.005 135.429, 1101.257 136.657, 1101.895 137.295 C 1103.326 138.726, 1106.339 137.105, 1106.823 134.643 C 1107.255 132.449, 1102.176 132.379, 1101.336 134.567" stroke="none" fill="#7D0000" fill-rule="evenodd"/><path d="M 352.500 1.815 C 354.150 2.809, 365.625 9.060, 378 15.706 C 416.943 36.619, 466.260 63.142, 472.500 66.528 C 475.800 68.319, 502.125 82.483, 531 98.004 C 559.875 113.524, 595.944 132.923, 611.153 141.112 L 638.806 156 940.403 156 L 1242 156 1242 78 L 1242 0 795.750 0.004 C 364.889 0.007, 349.603 0.070, 352.500 1.815 M 1165.364 23.117 C 1160.864 25.406, 1160.584 31.637, 1164.878 33.935 C 1168.470 35.857, 1173.877 35.213, 1176.545 32.545 C 1179.458 29.633, 1179.611 27.976, 1177.240 25.048 C 1175.194 22.521, 1168.632 21.455, 1165.364 23.117 M 921.635 26.073 C 918.344 28.661, 918.286 31.377, 921.455 34.545 C 923.261 36.352, 924.990 37, 928 37 C 932.364 37, 937 33.652, 937 30.500 C 937 29.625, 935.895 27.805, 934.545 26.455 C 931.381 23.290, 925.397 23.113, 921.635 26.073 M 714.110 31.389 L 707.778 37.778 708.463 43.685 L 709.149 49.592 697.020 57.203 C 690.348 61.389, 685.252 65.025, 685.695 65.284 C 687.478 66.324, 695.943 62.815, 698.867 59.824 L 701.984 56.637 704.242 58.752 C 710.605 64.712, 723.834 64.391, 729.403 58.140 C 731.227 56.093, 731.235 55.848, 729.590 52.199 C 728.646 50.107, 725.664 46.491, 722.963 44.164 L 718.051 39.933 721.526 35.097 C 725.240 29.927, 725.705 28.105, 723.800 26.200 C 721.778 24.178, 720.669 24.772, 714.110 31.389 M 795 28.757 C 795 30.013, 803.936 40.500, 805.006 40.500 C 806.700 40.500, 805.845 38.698, 801.595 33.306 C 797.941 28.672, 795 26.643, 795 28.757 M 1025.308 29.010 C 1024.103 29.495, 1022.347 31.067, 1021.406 32.503 C 1019.773 34.995, 1019.787 35.238, 1021.699 37.799 C 1024.528 41.588, 1029.208 42.748, 1033.468 40.717 C 1042.843 36.246, 1035.062 25.081, 1025.308 29.010 M 628.655 30.829 C 624.840 35.044, 628.160 43, 633.734 43 C 636.850 43, 641 38.742, 641 35.545 C 641 29.905, 632.448 26.637, 628.655 30.829 M 1056 38.132 C 1049.675 42.552, 1042.269 47.311, 1039.541 48.707 L 1034.583 51.245 1031.541 47.738 C 1028.405 44.121, 1023.676 42.437, 1022.139 44.390 C 1021.659 45, 1020.330 47.975, 1019.186 51 C 1018.043 54.025, 1016.197 58.830, 1015.085 61.678 C 1013.167 66.590, 1013.151 66.963, 1014.781 68.937 C 1016.546 71.072, 1019.472 71.691, 1028.750 71.888 C 1033.615 71.992, 1034 72.178, 1034 74.435 C 1034 78.934, 1035.770 82, 1038.368 82 C 1041.409 82, 1042 80.437, 1042 72.393 C 1042 64.993, 1041.764 64.791, 1031.654 63.550 L 1025.809 62.832 1026.494 59.166 C 1027.363 54.514, 1027.346 54.525, 1030.336 56.484 C 1032.767 58.077, 1033.047 58.002, 1039.281 54.064 C 1042.820 51.829, 1046.567 49.985, 1047.608 49.967 C 1049.687 49.930, 1054 46.735, 1054 45.231 C 1054 44.710, 1056.475 42.640, 1059.500 40.631 L 1065 36.980 1065.017 40.740 C 1065.043 46.376, 1067.584 57.282, 1069.887 61.644 C 1072.990 67.522, 1073.534 68.116, 1075.223 67.468 C 1076.577 66.948, 1076.473 66.309, 1074.444 62.678 C 1069.500 53.833, 1067.099 35.822, 1070.489 33.009 C 1072.255 31.544, 1071.569 29.980, 1069.191 30.048 C 1068.261 30.075, 1062.325 33.713, 1056 38.132 M 782 56.525 L 782 82.050 798.250 81.775 L 814.500 81.500 814.797 75.834 C 815.072 70.601, 815.422 69.865, 819.374 66.223 L 823.654 62.278 829.367 63.313 C 834.222 64.193, 835.322 64.106, 836.696 62.733 C 838.183 61.245, 837.979 60.607, 834.115 54.677 C 827.986 45.270, 827.179 44.711, 820.831 45.488 C 817.033 45.952, 814.450 45.696, 811.849 44.598 C 808.683 43.261, 808.040 43.247, 807.007 44.492 C 805.143 46.738, 814.001 52.036, 818.421 51.319 C 821.154 50.876, 822.058 51.256, 823.944 53.644 L 826.200 56.500 822.162 57 C 818.813 57.415, 817.595 58.232, 815.028 61.788 C 813.325 64.147, 811.557 65.844, 811.097 65.560 C 810.638 65.276, 809.974 63.241, 809.622 61.036 C 809.059 57.520, 808.417 56.742, 804.376 54.689 C 799.945 52.436, 799.672 52.034, 797.106 43.973 L 794.440 35.597 788.506 33.298 C 785.243 32.034, 782.444 31, 782.286 31 C 782.129 31, 782 42.486, 782 56.525 M 816.223 32.557 C 812.655 35.056, 813.366 39.577, 817.684 41.850 C 820.880 43.532, 823.393 43.265, 826.365 40.927 C 831.375 36.987, 828.441 31, 821.500 31 C 819.820 31, 817.445 31.701, 816.223 32.557 M 738.388 33.934 C 734.770 35.475, 732 39.932, 732 44.212 C 732 54.831, 746.971 57.921, 751.883 48.316 C 756.078 40.113, 746.883 30.314, 738.388 33.934 M 1158.703 39.683 C 1157.378 41.782, 1154.837 46.086, 1153.054 49.246 C 1149.316 55.875, 1148.899 55.922, 1138.377 50.914 C 1135.010 49.311, 1130.869 48, 1129.175 48 L 1126.096 48 1127.479 52.597 C 1129.465 59.195, 1133.417 64.662, 1137.829 66.913 C 1141.037 68.549, 1142.367 68.705, 1146.058 67.876 C 1148.479 67.332, 1151.896 65.791, 1153.651 64.453 L 1156.842 62.019 1162.171 64.500 C 1171.292 68.746, 1171.683 68.542, 1178.250 56.136 C 1181.412 50.162, 1184 44.537, 1184 43.637 C 1184 41.827, 1182.467 41.436, 1181.500 43 C 1180.093 45.276, 1174.602 44.017, 1171.042 40.602 C 1169.094 38.733, 1166.062 36.903, 1164.305 36.534 C 1161.395 35.925, 1160.895 36.206, 1158.703 39.683 M 612.814 39.828 C 610.237 40.747, 606.075 42.953, 603.564 44.729 C 597.308 49.156, 597.303 52.203, 603.543 57.005 L 608.085 60.500 607.526 66.637 C 607.104 71.280, 607.298 72.900, 608.324 73.294 C 610.667 74.193, 611.808 72.661, 613.603 66.206 C 615.235 60.334, 615.239 59.725, 613.672 56.438 C 611.564 52.017, 611.474 52.409, 615 50.650 C 617.892 49.207, 618.022 49.241, 618.609 51.577 C 619.343 54.504, 619.616 54.522, 625.417 52.036 C 630.816 49.721, 631.988 46.352, 627.051 47.340 L 624.103 47.929 624.691 42.965 L 625.279 38 621.389 38.078 C 619.250 38.120, 615.392 38.908, 612.814 39.828 M 906.741 39.429 C 901.755 41.208, 900 42.781, 900 45.467 C 900 47.942, 902.363 50.417, 905.694 51.431 C 907.570 52.002, 908.466 51.190, 911.871 45.836 C 914.061 42.390, 915.635 39.218, 915.368 38.786 C 914.654 37.631, 911.020 37.902, 906.741 39.429 M 914.633 47.728 C 911.181 53.885, 910.034 56.830, 910.685 57.862 C 911.190 58.662, 913.998 60.227, 916.926 61.340 C 921.975 63.258, 925.986 67.381, 925.996 70.663 C 925.999 71.665, 914.080 76.080, 913.170 75.415 C 912.989 75.282, 913.507 74.122, 914.322 72.837 C 915.137 71.552, 916.108 69.040, 916.480 67.255 C 917.079 64.381, 916.854 63.895, 914.513 63.005 C 913.059 62.452, 911.526 62, 911.105 62 C 910.685 62, 909.571 65.583, 908.630 69.962 C 906.942 77.817, 906.872 77.933, 903.448 78.576 C 893.804 80.385, 901.668 81, 934.441 81 L 970 81 970 70 L 970 59 962.737 59 C 956.153 59, 955.007 59.314, 950.487 62.355 C 941.714 68.258, 941.607 68.225, 939.492 58.967 C 937.477 50.144, 936.172 47.612, 934.262 48.820 C 933.307 49.424, 933.585 51.641, 935.481 58.532 C 936.832 63.444, 937.614 67.750, 937.219 68.102 C 936.824 68.454, 935.281 69.029, 933.791 69.380 C 931.274 69.972, 931.004 69.715, 929.992 65.759 C 929.392 63.416, 928.739 61.007, 928.542 60.405 C 928.344 59.803, 926.116 58.732, 923.591 58.025 C 921.066 57.319, 919 56.556, 919 56.330 C 919 56.105, 919.911 54.135, 921.024 51.952 C 922.951 48.176, 923.229 48.012, 926.774 48.564 C 929.143 48.932, 931.878 48.561, 934.281 47.545 L 938.062 45.947 935.420 42.483 C 932.716 38.938, 930.435 38.732, 931.319 42.113 C 932.022 44.801, 929.262 44.542, 924.785 41.500 C 922.762 40.125, 920.745 39.011, 920.303 39.024 C 919.861 39.038, 917.310 42.954, 914.633 47.728 M 42.196 43.897 C 32.050 47.402, 27.170 54.765, 26.268 67.928 C 24.894 87.964, 34.688 98.262, 53.670 96.738 C 62.523 96.028, 68.474 92.308, 72.500 84.969 C 75.300 79.864, 75.499 78.801, 75.483 69 C 75.468 60.121, 75.125 57.859, 73.262 54.347 C 67.612 43.699, 55.026 39.466, 42.196 43.897 M 92.786 43.538 C 82.455 46.829, 78.810 58.867, 85.673 67.024 C 87.100 68.719, 91.019 71.483, 94.383 73.165 C 102.304 77.127, 104 78.703, 104 82.098 C 104 87.899, 95.803 89.798, 87.536 85.912 C 85.093 84.764, 82.623 84.115, 82.047 84.471 C 80.306 85.547, 80.871 90.871, 82.947 92.947 C 87.585 97.585, 101.758 98.167, 108.506 93.996 C 114.930 90.026, 117.865 80.485, 114.595 74.200 C 112.464 70.105, 109.180 67.509, 101.679 63.989 C 94.937 60.825, 92.670 58.248, 93.771 55 C 95.230 50.695, 100.883 49.855, 107.669 52.937 C 109.961 53.978, 112.099 54.568, 112.419 54.248 C 112.738 53.928, 113 51.919, 113 49.782 C 113 46.284, 112.650 45.752, 109.480 44.427 C 104.138 42.195, 98.023 41.869, 92.786 43.538 M 218.664 43.172 C 213.714 44.549, 208.279 49.995, 207.451 54.407 C 205.955 62.386, 209.745 68.344, 219.383 73.165 C 227.304 77.127, 229 78.703, 229 82.098 C 229 87.944, 220.796 89.795, 212.394 85.845 C 207.391 83.493, 206.047 84.105, 206.015 88.750 C 205.964 96.324, 224.130 99.791, 233.506 93.996 C 239.930 90.026, 242.865 80.485, 239.595 74.200 C 237.464 70.105, 234.180 67.509, 226.679 63.989 C 219.937 60.825, 217.670 58.248, 218.771 55 C 220.230 50.695, 225.883 49.855, 232.669 52.937 C 234.961 53.978, 237.099 54.568, 237.419 54.248 C 237.738 53.928, 238 51.919, 238 49.782 C 238 46.284, 237.650 45.752, 234.480 44.427 C 229.641 42.405, 223.245 41.898, 218.664 43.172 M 256.786 43.538 C 246.455 46.829, 242.810 58.867, 249.673 67.024 C 251.100 68.719, 255.019 71.483, 258.383 73.165 C 266.304 77.127, 268 78.703, 268 82.098 C 268 87.944, 259.796 89.795, 251.394 85.845 C 246.391 83.493, 245.047 84.105, 245.015 88.750 C 244.964 96.324, 263.130 99.791, 272.506 93.996 C 278.930 90.026, 281.865 80.485, 278.595 74.200 C 276.464 70.105, 273.180 67.509, 265.679 63.989 C 258.937 60.825, 256.670 58.248, 257.771 55 C 259.230 50.695, 264.883 49.855, 271.669 52.937 C 273.961 53.978, 276.099 54.568, 276.419 54.248 C 276.738 53.928, 277 51.919, 277 49.782 C 277 46.284, 276.650 45.752, 273.480 44.427 C 268.138 42.195, 262.023 41.869, 256.786 43.538 M 124.685 44.458 C 123.137 46.006, 122.992 48.634, 123.233 70.839 L 123.500 95.500 129 95.500 L 134.500 95.500 134.785 85.250 L 135.070 75 137.996 75 C 142.050 75, 144.217 77.714, 148.023 87.560 L 151.286 96 157.143 96 C 160.364 96, 163 95.586, 163 95.079 C 163 93.043, 155.960 77.636, 153.639 74.593 L 151.157 71.339 154.083 69.610 C 162.848 64.432, 161.692 49.297, 152.228 45.308 C 149.959 44.352, 144.177 43.542, 137.452 43.238 C 127.911 42.807, 126.170 42.973, 124.685 44.458 M 171.571 44.571 C 170.231 45.912, 170 49.640, 170 69.949 C 170 89.023, 170.276 93.984, 171.386 94.906 C 172.326 95.686, 177.397 95.967, 187.136 95.778 L 201.500 95.500 201.808 91.786 L 202.116 88.071 191.808 87.786 L 181.500 87.500 181.297 80.288 L 181.095 73.076 189.797 72.788 L 198.500 72.500 198.822 69.690 C 199.373 64.884, 197.572 63.852, 189.078 64.104 L 181.500 64.329 181.203 58.200 L 180.906 52.071 191.191 51.785 C 202.345 51.476, 202.990 51.080, 201.570 45.421 C 200.963 43.005, 200.934 43, 187.052 43 C 175.741 43, 172.849 43.293, 171.571 44.571 M 1166.072 47.866 C 1164.406 50.979, 1164.782 52, 1167.594 52 C 1169.346 52, 1170.357 52.649, 1170.710 54 C 1171.531 57.139, 1173.779 56.353, 1175.906 52.184 L 1177.853 48.368 1175.039 48.781 C 1173.449 49.014, 1171.121 48.470, 1169.684 47.529 C 1167.270 45.947, 1167.090 45.964, 1166.072 47.866 M 1206.664 50.703 C 1201.078 53.705, 1192.363 55.962, 1186.267 55.984 C 1182.197 55.999, 1181.936 56.192, 1179.500 61 C 1176.968 65.996, 1176.968 66, 1179.115 66 C 1180.297 66, 1182.741 65.087, 1184.546 63.972 L 1187.828 61.943 1191.532 64.457 C 1193.570 65.840, 1196.871 67.423, 1198.868 67.975 C 1202.064 68.857, 1203.027 68.649, 1206.894 66.239 C 1211.316 63.482, 1216.144 56.460, 1217.543 50.750 C 1218.179 48.156, 1218.026 48.003, 1214.858 48.052 C 1213.011 48.081, 1209.324 49.274, 1206.664 50.703 M 43.514 54.168 C 39.608 57.240, 38 61.857, 38 70 C 38 81.766, 41.464 86.989, 49.740 87.701 C 59.389 88.532, 64 82.647, 64 69.500 C 64 56.672, 60.639 52, 51.412 52 C 47.651 52, 45.529 52.582, 43.514 54.168 M 135 59 L 135 66 139.845 66 C 145.704 66, 148 63.953, 148 58.728 C 148 54.169, 145.188 52, 139.277 52 L 135 52 135 59 M 621.381 59.285 C 616.726 65.388, 616.193 71.654, 619.887 76.841 C 627.825 87.989, 645.971 82.992, 645.993 69.651 C 646.008 60.850, 640.595 55.547, 630.823 54.788 L 625.146 54.348 621.381 59.285 M 581.457 56.853 C 579.784 57.879, 577.561 60.019, 576.517 61.609 C 574.081 65.320, 574.003 72.829, 576.362 76.430 C 582.310 85.508, 596.918 85.014, 601.394 75.583 C 602.277 73.721, 603 71.751, 603 71.206 C 603 70.660, 603.675 69.955, 604.500 69.638 C 606.322 68.939, 606.495 67, 604.736 67 C 603.543 67, 598.975 58.652, 598.990 56.500 C 598.994 55.948, 595.749 55.385, 591.748 55.243 C 586.104 55.044, 583.827 55.400, 581.457 56.853 M 584.500 60.161 C 579.571 62.871, 577.496 69.321, 580.030 74.055 C 581.318 76.463, 586.112 79, 589.374 79 C 592.286 79, 597.536 74.884, 598.287 72.012 C 598.721 70.352, 598.326 70, 596.029 70 C 594.498 70, 592.685 70.675, 592 71.500 C 590.420 73.404, 587.599 73.427, 586.040 71.548 C 584.295 69.446, 585.144 66.737, 587.992 65.317 C 591.522 63.557, 593.371 60.854, 591.750 59.824 C 590.003 58.715, 586.864 58.861, 584.500 60.161 M 630 60.807 C 630 61.959, 631.344 63.821, 633.055 65.039 C 636.422 67.437, 636.714 70.534, 633.750 72.393 C 631.210 73.985, 628.509 71.935, 628.461 68.379 C 628.414 64.853, 627.153 61, 626.048 61 C 624.491 61, 622 65.943, 622 69.031 C 622 73.185, 623.464 75.671, 626.980 77.490 C 631.636 79.897, 634.820 79.380, 638.600 75.600 C 640.997 73.203, 642 71.290, 642 69.116 C 642 65.132, 637.571 60.200, 633.250 59.373 C 630.435 58.833, 630 59.025, 630 60.807 M 593.603 64.483 C 591.966 66.981, 591.977 67, 594.977 67 C 598.222 67, 599.028 65.098, 596.626 63.105 C 595.550 62.212, 594.896 62.509, 593.603 64.483 M 822.229 65.931 C 820.195 67.654, 820.056 68.294, 820.900 72.048 C 821.952 76.731, 823.286 78.559, 824.915 77.553 C 825.575 77.145, 825.766 75.389, 825.400 73.103 C 824.839 69.592, 825.014 69.237, 827.898 68.042 C 831.020 66.749, 832.073 65.012, 829.750 64.986 C 829.063 64.979, 827.600 64.755, 826.500 64.490 C 825.374 64.218, 823.508 64.847, 822.229 65.931 M 698.657 67.401 C 696.137 71.247, 689.197 73.354, 680.991 72.767 C 674.784 72.323, 674.121 72.441, 675.238 73.791 C 678.833 78.137, 693.828 80.768, 699.057 77.970 C 700.489 77.203, 701.816 77.372, 704.241 78.631 C 706.033 79.561, 710.687 80.529, 714.583 80.782 C 720.281 81.152, 722.586 80.835, 726.371 79.160 C 730.121 77.501, 731.627 77.289, 733.788 78.115 C 740.591 80.713, 752.981 78.343, 756.829 73.706 C 757.856 72.468, 757.056 72.335, 751.154 72.757 C 742.953 73.344, 738.122 71.968, 734.037 67.883 L 731.076 64.922 726.861 67.711 C 723.310 70.060, 721.599 70.500, 716 70.500 C 710.424 70.500, 708.685 70.057, 705.198 67.750 C 702.913 66.237, 700.860 65, 700.636 65 C 700.413 65, 699.522 66.081, 698.657 67.401 M 831.548 68.922 C 830.583 70.484, 835.568 78, 837.571 78 C 838.932 78, 838.918 77.669, 837.450 75.184 C 834.163 69.619, 832.323 67.668, 831.548 68.922 M 1049 75.465 L 1049 82 1073.500 82 L 1098 82 1098 75.465 C 1098 69.134, 1097.934 68.965, 1095.898 70.054 C 1094.645 70.725, 1091.719 70.940, 1088.648 70.585 C 1082.110 69.831, 1080.586 69.832, 1074.639 70.595 C 1071.580 70.988, 1068.938 70.770, 1067.514 70.007 C 1065.779 69.079, 1064.741 69.068, 1063.072 69.961 C 1060.238 71.478, 1053.881 71.542, 1051.151 70.081 C 1049.052 68.957, 1049 69.087, 1049 75.465 M 1154.734 71.497 C 1150.963 74.816, 1144.676 76.344, 1137.750 75.627 C 1134.588 75.299, 1132 75.240, 1132 75.495 C 1132 75.750, 1133.688 76.805, 1135.750 77.838 C 1140.663 80.298, 1147.468 81.132, 1152.824 79.928 C 1156.073 79.198, 1158.384 79.334, 1162.246 80.480 C 1168.749 82.412, 1175.706 82.416, 1181.374 80.491 C 1184.940 79.281, 1186.820 79.197, 1190.881 80.068 C 1197.413 81.469, 1205.990 79.811, 1209.785 76.414 L 1212.500 73.984 1209.685 74.992 C 1203.110 77.346, 1193.239 75.452, 1188.401 70.907 L 1186.275 68.910 1181.388 71.535 C 1175.173 74.873, 1166.239 74.731, 1161.303 71.216 C 1159.592 69.997, 1158.036 69.014, 1157.846 69.032 C 1157.656 69.049, 1156.255 70.159, 1154.734 71.497 M 1006.229 76.171 C 1005.553 76.847, 1005 78.435, 1005 79.700 C 1005 81.987, 1005.077 82, 1018.563 82 L 1032.127 82 1031.813 78.750 L 1031.500 75.500 1019.479 75.221 C 1010.979 75.024, 1007.098 75.302, 1006.229 76.171 M 460.568 109.765 C 459.448 110.885, 459.963 141.563, 461.122 142.722 C 463.759 145.359, 465 142.903, 465 135.048 C 465 126.480, 466.397 124, 471.222 124 C 474.515 124, 475 125.432, 475 135.151 C 475 142.863, 475.078 143.128, 477.250 142.820 C 479.385 142.516, 479.499 142.063, 479.481 133.927 C 479.454 121.511, 475.891 117.324, 468.130 120.587 L 465.092 121.865 464.796 115.774 C 464.563 110.971, 464.144 109.632, 462.818 109.440 C 461.893 109.306, 460.881 109.453, 460.568 109.765 M 538.701 109.632 C 538.316 110.018, 538 117.403, 538 126.044 C 538 141.956, 538.689 145.046, 541.809 143.118 C 542.736 142.545, 542.981 138.181, 542.776 125.938 C 542.543 112.058, 542.261 109.480, 540.951 109.228 C 540.099 109.065, 539.087 109.246, 538.701 109.632 M 247.357 111.992 C 246.178 112.467, 244.491 113.889, 243.607 115.151 C 240.156 120.077, 242.301 124.670, 250.101 129.057 C 256.866 132.862, 257.847 135.744, 253.375 138.674 C 250.945 140.266, 250.422 140.276, 246.360 138.816 C 243.946 137.948, 241.751 137.593, 241.482 138.029 C 240.392 139.792, 242.427 142.048, 246.103 143.149 C 253.881 145.479, 261 140.957, 261 133.686 C 261 130.670, 257.296 126.888, 252.007 124.503 C 247.163 122.319, 245.583 118.511, 248.603 116.300 C 249.646 115.536, 251.400 115.152, 252.500 115.448 C 253.600 115.743, 255.512 116.265, 256.750 116.609 C 258.547 117.107, 259 116.826, 259 115.214 C 259 111.984, 252.105 110.076, 247.357 111.992 M 804.667 116.667 C 804.300 117.033, 804 118.789, 804 120.568 C 804 123.638, 803.816 123.797, 800.373 123.699 C 797.709 123.624, 796.248 124.211, 794.873 125.909 C 792.589 128.729, 792.424 134.732, 794.546 137.763 C 795.874 139.658, 796.935 139.947, 802.046 139.806 L 808 139.642 808 127.821 C 808 118.637, 807.703 116, 806.667 116 C 805.933 116, 805.033 116.300, 804.667 116.667 M 1009.667 116.667 C 1009.300 117.033, 1009 118.789, 1009 120.568 C 1009 123.638, 1008.816 123.797, 1005.373 123.699 C 1002.709 123.624, 1001.248 124.211, 999.873 125.909 C 997.589 128.729, 997.424 134.732, 999.546 137.763 C 1000.874 139.658, 1001.935 139.947, 1007.046 139.806 L 1013 139.642 1013 127.821 C 1013 118.637, 1012.703 116, 1011.667 116 C 1010.933 116, 1010.033 116.300, 1009.667 116.667 M 746.014 118.738 C 741.885 120.825, 740.035 124.087, 740.015 129.316 C 739.987 136.605, 743.188 139.921, 750.298 139.968 C 754.196 139.994, 755.544 139.516, 757.491 137.416 C 760.101 134.599, 760.897 130.403, 759.828 125.099 C 758.490 118.464, 752.247 115.589, 746.014 118.738 M 300.304 120.514 C 298.165 121.413, 296.893 121.493, 296.174 120.774 C 295.602 120.202, 294.429 120.005, 293.567 120.336 C 292.284 120.828, 292 122.811, 292 131.269 C 292 141.639, 292.826 144.388, 295.622 143.315 C 296.630 142.928, 297 140.687, 297 134.964 C 297 126.182, 298.369 123.673, 302.876 124.196 C 305.450 124.494, 305.506 124.661, 305.794 132.950 C 306.095 141.618, 307.069 144.294, 309.573 143.334 C 310.639 142.925, 311 140.828, 311 135.048 C 311 126.480, 312.671 123.533, 317.168 124.170 C 319.387 124.484, 319.514 124.934, 319.792 133.467 C 320.080 142.312, 320.887 144.364, 323.659 143.300 C 324.639 142.925, 325 140.428, 325 134.028 C 325 126.820, 324.650 124.825, 323.024 122.758 C 320.314 119.313, 317.696 118.861, 313.333 121.085 C 310.214 122.675, 309.381 122.763, 308.064 121.639 C 305.472 119.427, 303.552 119.149, 300.304 120.514 M 339.022 120.633 C 336.488 121.698, 335.470 121.760, 334.926 120.880 C 334.528 120.236, 333.481 119.985, 332.601 120.323 C 331.276 120.831, 331 122.718, 331 131.269 C 331 141.639, 331.826 144.388, 334.622 143.315 C 335.630 142.928, 336 140.687, 336 134.964 C 336 126.182, 337.369 123.673, 341.876 124.196 C 344.450 124.494, 344.506 124.661, 344.794 132.950 C 345.095 141.618, 346.069 144.294, 348.573 143.334 C 349.639 142.925, 350 140.828, 350 135.048 C 350 126.480, 351.671 123.533, 356.168 124.170 C 358.387 124.484, 358.514 124.934, 358.792 133.467 C 359.080 142.312, 359.887 144.364, 362.659 143.300 C 363.639 142.925, 364 140.428, 364 134.028 C 364 126.820, 363.650 124.825, 362.024 122.758 C 359.314 119.313, 356.696 118.861, 352.333 121.085 C 349.214 122.675, 348.381 122.763, 347.064 121.639 C 344.430 119.391, 342.539 119.154, 339.022 120.633 M 376.212 120.139 C 371.345 121.527, 368.791 126.175, 369.277 132.758 C 369.910 141.320, 375.689 145.427, 384.065 143.267 C 386.486 142.643, 387.594 141.735, 387.820 140.189 C 388.109 138.205, 387.889 138.092, 385.505 138.998 C 379.657 141.222, 374 139.116, 374 134.715 C 374 133.388, 375.340 133.033, 381.250 132.794 C 388 132.520, 388.523 132.338, 388.833 130.148 C 389.874 122.796, 383.796 117.976, 376.212 120.139 M 401.578 120.536 C 399.395 121.674, 398.471 121.763, 397.929 120.884 C 397.529 120.238, 396.481 119.985, 395.601 120.323 C 394.276 120.831, 394 122.718, 394 131.269 C 394 141.639, 394.826 144.388, 397.622 143.315 C 398.628 142.929, 399 140.700, 399 135.048 C 399 126.696, 400.408 124, 404.770 124 C 407.626 124, 408.358 122.501, 406.438 120.581 C 404.545 118.688, 405.113 118.693, 401.578 120.536 M 423.285 120.500 C 416.888 123.234, 418.087 129.824, 425.586 133.141 C 428.610 134.479, 430 135.703, 430 137.028 C 430 139.492, 425.750 140.663, 422.379 139.127 C 419.017 137.595, 418.814 137.667, 419.180 140.250 C 419.629 143.411, 426.079 145.027, 429.833 142.920 C 433.160 141.053, 435.054 137.352, 434.089 134.605 C 433.682 133.447, 431.245 131.479, 428.674 130.231 C 421.552 126.773, 422.678 121.298, 429.987 123.846 C 432.645 124.772, 433 124.673, 433 123.007 C 433 121.968, 432.663 120.929, 432.250 120.697 C 429.904 119.381, 426.100 119.298, 423.285 120.500 M 443.960 120.780 C 439.782 122.874, 438.034 126.113, 438.015 131.800 C 437.996 137.358, 440.137 141.400, 443.933 142.972 C 448.832 145.002, 455 142.705, 455 138.852 C 455 137.066, 454.818 137.043, 452.050 138.474 C 448.207 140.462, 446.671 140.399, 444.655 138.171 C 442.690 136, 442.375 127.025, 444.200 125.200 C 445.652 123.748, 451.637 123.604, 452.500 125 C 453.520 126.650, 455 126.130, 455 124.122 C 455 120.076, 448.994 118.258, 443.960 120.780 M 492.212 120.153 C 487.949 121.351, 485.009 126.121, 485.004 131.846 C 484.996 140.611, 491.120 145.479, 499.132 143.079 C 503.756 141.693, 506.075 138.513, 506.736 132.651 C 507.770 123.474, 501.033 117.676, 492.212 120.153 M 518.212 120.153 C 513.949 121.351, 511.009 126.121, 511.004 131.846 C 510.996 140.611, 517.120 145.479, 525.132 143.079 C 529.756 141.693, 532.075 138.513, 532.736 132.651 C 533.770 123.474, 527.033 117.676, 518.212 120.153 M 783 121.500 C 782.477 122.875, 781.588 124, 781.025 124 C 780.461 124, 780 124.450, 780 125 C 780 125.550, 780.654 126, 781.454 126 C 782.554 126, 782.981 127.646, 783.204 132.750 L 783.500 139.500 786.750 139.500 C 788.538 139.500, 789.955 139.050, 789.900 138.500 C 789.845 137.950, 789.324 137.636, 788.742 137.803 C 787.002 138.300, 786.032 135.789, 786.015 130.750 C 786.001 126.346, 786.182 126, 788.500 126 C 789.875 126, 791 125.550, 791 125 C 791 124.450, 790.089 124, 788.975 124 C 787.736 124, 786.582 123.031, 786 121.500 C 785.477 120.125, 784.802 119, 784.500 119 C 784.198 119, 783.523 120.125, 783 121.500 M 930.960 121.605 C 930.145 123.748, 929.527 124.098, 927.464 123.580 C 926.086 123.235, 924.096 123.414, 923.040 123.979 C 921.739 124.675, 920.919 124.678, 920.492 123.986 C 918.977 121.535, 918 124.700, 918 132.059 C 918 139.333, 918.168 140, 920 140 C 921.773 140, 922 139.333, 922 134.122 C 922 127.480, 923.294 125.674, 927.690 126.178 C 930.388 126.487, 930.520 126.758, 931 133 L 931.500 139.500 934.750 139.500 C 936.538 139.500, 937.955 139.050, 937.900 138.500 C 937.845 137.950, 937.324 137.636, 936.742 137.803 C 935.002 138.300, 934.032 135.789, 934.015 130.750 C 934.001 126.346, 934.182 126, 936.500 126 C 939.611 126, 939.811 124.254, 936.750 123.820 C 935.304 123.614, 934.386 122.696, 934.180 121.250 C 933.752 118.230, 932.177 118.404, 930.960 121.605 M 1116 121.500 C 1115.477 122.875, 1114.588 124, 1114.025 124 C 1113.461 124, 1113 124.450, 1113 125 C 1113 125.550, 1113.654 126, 1114.454 126 C 1115.554 126, 1115.981 127.646, 1116.204 132.750 L 1116.500 139.500 1119.750 139.500 C 1121.537 139.500, 1122.955 139.050, 1122.900 138.500 C 1122.845 137.950, 1122.324 137.636, 1121.742 137.803 C 1120.002 138.300, 1119.032 135.789, 1119.015 130.750 C 1119.001 126.346, 1119.182 126, 1121.500 126 C 1122.875 126, 1124 125.550, 1124 125 C 1124 124.450, 1123.089 124, 1121.975 124 C 1120.736 124, 1119.582 123.031, 1119 121.500 C 1118.477 120.125, 1117.802 119, 1117.500 119 C 1117.198 119, 1116.523 120.125, 1116 121.500 M 266 127.851 C 266 137.769, 267.241 141.443, 271.137 143.057 C 273.627 144.088, 274.691 144.041, 277.332 142.782 C 280.053 141.484, 280.711 141.465, 281.820 142.653 C 284.297 145.304, 285 142.827, 285 131.441 C 285 120.667, 284.883 120, 283 120 C 281.170 120, 281 120.667, 281 127.826 C 281 134.713, 280.722 135.912, 278.686 137.826 C 277.413 139.022, 275.703 140, 274.886 140 C 271.814 140, 271 137.654, 271 128.800 C 271 120.080, 270.977 120, 268.500 120 C 266.046 120, 266 120.143, 266 127.851 M 746.455 122.455 C 741.572 127.337, 744.215 137.250, 750.400 137.250 C 754.645 137.250, 756.385 134.819, 756.385 128.887 C 756.385 124.710, 755.947 123.375, 754.082 121.865 C 751.022 119.387, 749.396 119.513, 746.455 122.455 M 375.655 124.829 C 372.749 128.040, 373.633 129, 379.500 129 C 385.430 129, 385.825 128.622, 383.443 125.223 C 381.555 122.527, 377.905 122.342, 375.655 124.829 M 494 123.704 C 491.277 124.659, 490 127.319, 490 132.036 C 490 139.324, 495.435 142.565, 500 138 C 502.316 135.684, 502.766 128.357, 500.750 125.792 C 499.288 123.932, 496.133 122.956, 494 123.704 M 520 123.704 C 517.277 124.659, 516 127.319, 516 132.036 C 516 139.324, 521.435 142.565, 526 138 C 528.316 135.684, 528.766 128.357, 526.750 125.792 C 525.288 123.932, 522.133 122.956, 520 123.704 M 764.598 123.736 C 763.595 124.739, 763.933 136.006, 765.027 138.051 C 765.882 139.648, 767.060 139.943, 772.027 139.807 L 778 139.642 778 131.988 C 778 123.901, 777.659 122.810, 775.402 123.676 C 774.420 124.053, 774 125.969, 774 130.072 C 774 134.641, 773.615 136.128, 772.250 136.830 C 768.947 138.528, 768 137.123, 768 130.524 C 768 126.033, 767.596 124.059, 766.598 123.676 C 765.827 123.380, 764.927 123.407, 764.598 123.736 M 815.400 124.405 C 811.908 125.951, 811 127.639, 811 132.582 C 811 137.270, 813.917 140, 818.927 140 C 823.684 140, 827 136.499, 827 131.476 C 827 125.209, 821.356 121.769, 815.400 124.405 M 834.259 123.686 C 829.160 124.711, 827.037 134.037, 831 138 C 834.058 141.058, 840.283 140.727, 842.927 137.365 C 848.352 130.468, 842.948 121.940, 834.259 123.686 M 848.683 123.650 C 848.308 124.026, 848 127.858, 848 132.167 C 848 139.333, 848.170 140, 850 140 C 851.770 140, 852 139.333, 852 134.200 C 852 128.186, 853.120 126, 856.200 126 C 857.190 126, 858 125.536, 858 124.969 C 858 123.350, 855.349 122.743, 853.231 123.876 C 851.988 124.542, 850.963 124.563, 850.337 123.937 C 849.803 123.403, 849.059 123.274, 848.683 123.650 M 869.223 124.557 C 865.837 126.928, 866.461 129.635, 871.065 132.541 C 875.940 135.619, 875.731 137.589, 870.565 137.271 C 865.533 136.961, 866.327 139.388, 871.397 139.815 C 878.636 140.423, 880.684 134.516, 874.500 130.867 C 870.219 128.342, 869.820 125.771, 873.750 126.031 C 878.119 126.319, 878.630 126.035, 876.559 124.468 C 874.070 122.586, 872.001 122.611, 869.223 124.557 M 882.658 123.675 C 882.296 124.037, 882 129.208, 882 135.167 C 882 145.333, 882.123 146, 884 146 C 885.609 146, 886 145.333, 886 142.594 C 886 139.689, 886.292 139.264, 887.984 139.706 C 891.272 140.566, 894.587 139.201, 895.829 136.477 C 897.731 132.301, 897.249 128.158, 894.545 125.455 C 891.968 122.877, 890.783 122.623, 887.500 123.947 C 886.400 124.390, 885.009 124.362, 884.408 123.885 C 883.807 123.408, 883.020 123.313, 882.658 123.675 M 904.259 123.686 C 899.160 124.711, 897.037 134.037, 901 138 C 904.058 141.058, 910.283 140.727, 912.927 137.365 C 918.352 130.468, 912.948 121.940, 904.259 123.686 M 944 124.290 C 939.866 126.374, 940.248 129.500, 945.003 132.502 C 949.934 135.615, 949.753 137.591, 944.565 137.271 C 939.533 136.961, 940.327 139.388, 945.397 139.815 C 952.636 140.423, 954.684 134.516, 948.500 130.867 C 944.219 128.342, 943.820 125.771, 947.750 126.031 C 952.119 126.319, 952.630 126.035, 950.559 124.468 C 948.204 122.687, 947.232 122.660, 944 124.290 M 966.250 124.031 C 962.524 125.529, 963.578 127.091, 967.853 126.408 C 970.958 125.911, 971.836 126.131, 972.377 127.539 C 973.189 129.655, 973.487 129.412, 968 131.109 C 964.578 132.167, 963.422 133.052, 963.173 134.805 C 962.632 138.621, 964.661 139.998, 970.616 139.861 L 976 139.737 976 132.925 C 976 127.020, 975.704 125.906, 973.777 124.557 C 971.297 122.819, 969.565 122.699, 966.250 124.031 M 987.681 123.653 C 987.322 124.011, 985.672 124.267, 984.014 124.219 L 981 124.134 981 132.140 C 981 139.226, 981.201 140.108, 982.750 139.814 C 984.127 139.552, 984.563 138.273, 984.797 133.823 C 985.107 127.940, 986.759 125.310, 989.487 126.357 C 990.624 126.793, 991 128.561, 991 133.469 C 991 139.333, 991.204 140, 993 140 C 994.795 140, 995 139.333, 995 133.500 C 995 128.333, 994.590 126.590, 993 125 C 990.983 122.983, 988.883 122.451, 987.681 123.653 M 1025.683 123.650 C 1025.307 124.026, 1025 127.858, 1025 132.167 C 1025 139.333, 1025.170 140, 1027 140 C 1028.770 140, 1029 139.333, 1029 134.200 C 1029 128.186, 1030.120 126, 1033.200 126 C 1034.190 126, 1035 125.536, 1035 124.969 C 1035 123.350, 1032.349 122.743, 1030.231 123.876 C 1028.988 124.542, 1027.963 124.563, 1027.337 123.937 C 1026.803 123.403, 1026.059 123.274, 1025.683 123.650 M 1040.315 123.985 C 1037.460 125.164, 1036 128.022, 1036 132.434 C 1036 137.727, 1038.909 140.184, 1044.724 139.803 C 1047.427 139.626, 1049.523 138.954, 1049.777 138.185 C 1050.107 137.182, 1049.351 137.031, 1046.594 137.548 C 1042.539 138.309, 1040 136.895, 1040 133.878 C 1040 132.268, 1040.786 132, 1045.500 132 C 1050.226 132, 1051 131.734, 1051 130.111 C 1051 125.611, 1044.879 122.102, 1040.315 123.985 M 1057.315 124.007 C 1053.021 125.737, 1051.487 133.394, 1054.557 137.777 C 1056.432 140.455, 1063.013 140.894, 1065.020 138.476 C 1066.725 136.421, 1065.655 135.579, 1063.086 136.954 C 1059.640 138.798, 1057 136.688, 1057 132.087 C 1057 127.348, 1058.869 125.593, 1062.959 126.491 C 1066.744 127.322, 1067.112 125.373, 1063.435 123.975 C 1060.449 122.840, 1060.208 122.841, 1057.315 124.007 M 1069.683 123.650 C 1069.307 124.026, 1069 127.858, 1069 132.167 C 1069 139.333, 1069.170 140, 1071 140 C 1072.770 140, 1073 139.333, 1073 134.200 C 1073 128.186, 1074.120 126, 1077.200 126 C 1078.190 126, 1079 125.536, 1079 124.969 C 1079 123.350, 1076.349 122.743, 1074.231 123.876 C 1072.988 124.542, 1071.963 124.563, 1071.337 123.937 C 1070.803 123.403, 1070.059 123.274, 1069.683 123.650 M 1084.315 123.985 C 1081.460 125.164, 1080 128.022, 1080 132.434 C 1080 137.727, 1082.909 140.184, 1088.724 139.803 C 1091.427 139.626, 1093.523 138.954, 1093.777 138.185 C 1094.107 137.182, 1093.351 137.031, 1090.594 137.548 C 1086.539 138.309, 1084 136.895, 1084 133.878 C 1084 132.268, 1084.786 132, 1089.500 132 C 1094.226 132, 1095 131.734, 1095 130.111 C 1095 125.611, 1088.879 122.102, 1084.315 123.985 M 1100.250 124.031 C 1096.524 125.529, 1097.578 127.091, 1101.853 126.408 C 1104.958 125.911, 1105.836 126.131, 1106.377 127.539 C 1107.189 129.655, 1107.487 129.412, 1102 131.109 C 1098.578 132.167, 1097.422 133.052, 1097.173 134.805 C 1096.632 138.621, 1098.661 139.998, 1104.616 139.861 L 1110 139.737 1110 132.925 C 1110 127.020, 1109.704 125.906, 1107.777 124.557 C 1105.297 122.819, 1103.565 122.699, 1100.250 124.031 M 1127.598 123.736 C 1127.269 124.064, 1127 127.858, 1127 132.167 C 1127 139.333, 1127.170 140, 1129 140 C 1130.831 140, 1131 139.333, 1131 132.107 C 1131 126.258, 1130.637 124.075, 1129.598 123.676 C 1128.827 123.380, 1127.927 123.407, 1127.598 123.736 M 1139.259 123.686 C 1134.160 124.711, 1132.037 134.037, 1136 138 C 1139.058 141.058, 1145.283 140.727, 1147.927 137.365 C 1153.352 130.468, 1147.948 121.940, 1139.259 123.686 M 1153.658 123.675 C 1153.296 124.037, 1153 127.858, 1153 132.167 C 1153 139.333, 1153.170 140, 1155 140 C 1156.773 140, 1157 139.333, 1157 134.122 C 1157 127.953, 1158.569 125.237, 1161.487 126.357 C 1162.624 126.793, 1163 128.561, 1163 133.469 C 1163 139.333, 1163.204 140, 1165 140 C 1166.795 140, 1167 139.333, 1167 133.500 C 1167 128.333, 1166.590 126.590, 1165 125 C 1162.863 122.863, 1161.669 122.670, 1158.500 123.947 C 1157.400 124.390, 1156.009 124.362, 1155.408 123.885 C 1154.807 123.408, 1154.020 123.313, 1153.658 123.675 M 798.200 127.200 C 796.534 128.866, 796.695 135.502, 798.436 136.947 C 799.502 137.832, 800.404 137.854, 801.936 137.034 C 805.530 135.111, 804.344 126, 800.500 126 C 799.895 126, 798.860 126.540, 798.200 127.200 M 816.200 127.200 C 814.169 129.231, 814.703 135.771, 817 137 C 820.335 138.785, 823 136.637, 823 132.165 C 823 128.152, 821.604 126, 819 126 C 818.120 126, 816.860 126.540, 816.200 127.200 M 834.200 127.200 C 832.169 129.231, 832.703 135.771, 835 137 C 838.335 138.785, 841 136.637, 841 132.165 C 841 128.152, 839.604 126, 837 126 C 836.120 126, 834.860 126.540, 834.200 127.200 M 887.200 127.200 C 886.540 127.860, 886 130.094, 886 132.165 C 886 136.756, 888.858 138.999, 891.431 136.427 C 894.346 133.511, 892.956 126, 889.500 126 C 888.895 126, 887.860 126.540, 887.200 127.200 M 904.200 127.200 C 902.169 129.231, 902.703 135.771, 905 137 C 908.335 138.785, 911 136.637, 911 132.165 C 911 128.152, 909.604 126, 907 126 C 906.120 126, 904.860 126.540, 904.200 127.200 M 1003.200 127.200 C 1001.534 128.866, 1001.695 135.502, 1003.436 136.947 C 1004.502 137.832, 1005.404 137.854, 1006.936 137.034 C 1010.530 135.111, 1009.344 126, 1005.500 126 C 1004.895 126, 1003.860 126.540, 1003.200 127.200 M 1040.628 127.528 C 1039.689 129.973, 1039.721 130, 1043.573 130 C 1046.436 130, 1047.081 129.652, 1046.815 128.250 C 1046.368 125.897, 1041.473 125.325, 1040.628 127.528 M 1084.628 127.528 C 1083.689 129.973, 1083.721 130, 1087.573 130 C 1090.436 130, 1091.081 129.652, 1090.815 128.250 C 1090.368 125.897, 1085.473 125.325, 1084.628 127.528 M 1139.200 127.200 C 1137.169 129.231, 1137.703 135.771, 1140 137 C 1143.335 138.785, 1146 136.637, 1146 132.165 C 1146 128.152, 1144.604 126, 1142 126 C 1141.120 126, 1139.860 126.540, 1139.200 127.200 M 967.336 134.567 C 967.005 135.429, 967.257 136.657, 967.895 137.295 C 969.326 138.726, 972.339 137.105, 972.823 134.643 C 973.255 132.449, 968.176 132.379, 967.336 134.567 M 1101.336 134.567 C 1101.005 135.429, 1101.257 136.657, 1101.895 137.295 C 1103.326 138.726, 1106.339 137.105, 1106.823 134.643 C 1107.255 132.449, 1102.176 132.379, 1101.336 134.567" stroke="none" fill="#f5f5f5" fill-rule="evenodd"/></svg>